<svg width="14" height="14" viewBox="0 0 14 14" fill="none" xmlns="http://www.w3.org/2000/svg">
<g clip-path="url(#clip0_2_466)">
<path d="M12.9277 3.29953C12.4823 3.49652 12.0101 3.62589 11.5265 3.68337C12.0362 3.37854 12.4177 2.89879 12.5998 2.33353C12.1215 2.6182 11.5971 2.8177 11.0505 2.92562C10.6834 2.53279 10.1967 2.27226 9.66624 2.18454C9.13575 2.09682 8.59115 2.18682 8.11709 2.44055C7.64303 2.69428 7.26607 3.09752 7.04483 3.58758C6.82359 4.07764 6.77045 4.62707 6.89368 5.15045C5.92366 5.10183 4.97471 4.84976 4.10843 4.41059C3.24216 3.97142 2.47792 3.35498 1.86535 2.60128C1.64852 2.97371 1.53457 3.39708 1.53518 3.82803C1.53518 4.67387 1.96568 5.42112 2.62018 5.85862C2.23285 5.84642 1.85405 5.74182 1.51535 5.55354V5.58387C1.51546 6.14719 1.7104 6.69314 2.06709 7.12915C2.42379 7.56516 2.9203 7.8644 3.47243 7.97612C3.11287 8.07356 2.73586 8.08792 2.36993 8.01812C2.5256 8.503 2.82902 8.92707 3.23769 9.23093C3.64637 9.5348 4.13984 9.70325 4.64901 9.7127C4.14296 10.1101 3.56353 10.4039 2.94386 10.5773C2.32419 10.7507 1.67642 10.8002 1.0376 10.723C2.15275 11.4402 3.4509 11.8209 4.77676 11.8197C9.26435 11.8197 11.7184 8.10212 11.7184 4.87804C11.7184 4.77304 11.7155 4.66687 11.7108 4.56303C12.1885 4.2178 12.6008 3.79013 12.9283 3.30012L12.9277 3.29953Z" fill="#2B2B2B"/>
</g>
<defs>
<clipPath id="clip0_2_466">
<rect width="14" height="14" fill="white"/>
</clipPath>
</defs>
</svg>
