<svg width="14" height="14" viewBox="0 0 14 14" fill="none" xmlns="http://www.w3.org/2000/svg">
<g clip-path="url(#clip0_2_462)">
<path d="M6.99984 1.1665C8.58475 1.1665 8.7825 1.17234 9.40434 1.2015C10.0256 1.23067 10.4485 1.32809 10.8207 1.47275C11.2057 1.62092 11.53 1.82159 11.8543 2.14534C12.151 2.43694 12.3805 2.78968 12.5269 3.179C12.671 3.55059 12.769 3.97409 12.7982 4.59534C12.8256 5.21717 12.8332 5.41492 12.8332 6.99984C12.8332 8.58475 12.8273 8.7825 12.7982 9.40434C12.769 10.0256 12.671 10.4485 12.5269 10.8207C12.3809 11.2102 12.1513 11.563 11.8543 11.8543C11.5626 12.1509 11.2099 12.3804 10.8207 12.5269C10.4491 12.671 10.0256 12.769 9.40434 12.7982C8.7825 12.8256 8.58475 12.8332 6.99984 12.8332C5.41492 12.8332 5.21717 12.8273 4.59534 12.7982C3.97409 12.769 3.55117 12.671 3.179 12.5269C2.78953 12.3808 2.43673 12.1512 2.14534 11.8543C1.84866 11.5628 1.61913 11.21 1.47275 10.8207C1.32809 10.4491 1.23067 10.0256 1.2015 9.40434C1.17409 8.7825 1.1665 8.58475 1.1665 6.99984C1.1665 5.41492 1.17234 5.21717 1.2015 4.59534C1.23067 3.9735 1.32809 3.55117 1.47275 3.179C1.61873 2.78944 1.84831 2.43661 2.14534 2.14534C2.43681 1.84856 2.78959 1.61901 3.179 1.47275C3.55117 1.32809 3.9735 1.23067 4.59534 1.2015C5.21717 1.17409 5.41492 1.1665 6.99984 1.1665ZM6.99984 4.08317C6.22629 4.08317 5.48442 4.39046 4.93744 4.93744C4.39046 5.48442 4.08317 6.22629 4.08317 6.99984C4.08317 7.77339 4.39046 8.51525 4.93744 9.06223C5.48442 9.60921 6.22629 9.9165 6.99984 9.9165C7.77339 9.9165 8.51525 9.60921 9.06223 9.06223C9.60921 8.51525 9.9165 7.77339 9.9165 6.99984C9.9165 6.22629 9.60921 5.48442 9.06223 4.93744C8.51525 4.39046 7.77339 4.08317 6.99984 4.08317ZM10.7915 3.93734C10.7915 3.74395 10.7147 3.55848 10.5779 3.42174C10.4412 3.28499 10.2557 3.20817 10.0623 3.20817C9.86895 3.20817 9.68348 3.28499 9.54674 3.42174C9.40999 3.55848 9.33317 3.74395 9.33317 3.93734C9.33317 4.13072 9.40999 4.31619 9.54674 4.45294C9.68348 4.58968 9.86895 4.6665 10.0623 4.6665C10.2557 4.6665 10.4412 4.58968 10.5779 4.45294C10.7147 4.31619 10.7915 4.13072 10.7915 3.93734ZM6.99984 5.24984C7.46397 5.24984 7.90909 5.43421 8.23727 5.7624C8.56546 6.09059 8.74984 6.53571 8.74984 6.99984C8.74984 7.46397 8.56546 7.90909 8.23727 8.23727C7.90909 8.56546 7.46397 8.74984 6.99984 8.74984C6.53571 8.74984 6.09059 8.56546 5.7624 8.23727C5.43421 7.90909 5.24984 7.46397 5.24984 6.99984C5.24984 6.53571 5.43421 6.09059 5.7624 5.7624C6.09059 5.43421 6.53571 5.24984 6.99984 5.24984Z" fill="#2B2B2B"/>
</g>
<defs>
<clipPath id="clip0_2_462">
<rect width="14" height="14" fill="white"/>
</clipPath>
</defs>
</svg>
