<svg width="14" height="14" viewBox="0 0 14 14" fill="none" xmlns="http://www.w3.org/2000/svg">
<g clip-path="url(#clip0_2_474)">
<path d="M12.5666 3.79066C12.8332 4.83016 12.8332 7.00016 12.8332 7.00016C12.8332 7.00016 12.8332 9.17016 12.5666 10.2097C12.4184 10.7842 11.985 11.2363 11.4361 11.3892C10.4392 11.6668 6.99984 11.6668 6.99984 11.6668C6.99984 11.6668 3.56225 11.6668 2.56359 11.3892C2.01234 11.234 1.5795 10.7825 1.43309 10.2097C1.1665 9.17016 1.1665 7.00016 1.1665 7.00016C1.1665 7.00016 1.1665 4.83016 1.43309 3.79066C1.58125 3.21608 2.01467 2.764 2.56359 2.61116C3.56225 2.3335 6.99984 2.3335 6.99984 2.3335C6.99984 2.3335 10.4392 2.3335 11.4361 2.61116C11.9873 2.76633 12.4202 3.21783 12.5666 3.79066ZM5.83317 9.04183L9.33317 7.00016L5.83317 4.9585V9.04183Z" fill="#2B2B2B"/>
</g>
<defs>
<clipPath id="clip0_2_474">
<rect width="14" height="14" fill="white"/>
</clipPath>
</defs>
</svg>
