<svg width="14" height="14" viewBox="0 0 14 14" fill="none" xmlns="http://www.w3.org/2000/svg">
<g clip-path="url(#clip0_2_478)">
<path d="M11.6601 6.75017C11.6123 5.83195 11.2929 4.94861 10.7425 4.21209C10.5748 4.3927 10.3955 4.56223 10.2058 4.71959C9.62304 5.20366 8.97179 5.59878 8.27325 5.89209C8.37067 6.09625 8.45992 6.294 8.53867 6.48067V6.48242C8.56089 6.53458 8.58228 6.58709 8.60284 6.63992C9.486 6.54075 10.417 6.57692 11.3194 6.69884C11.4396 6.71517 11.5528 6.73267 11.6601 6.75017ZM6.1855 2.40434C6.75398 3.20535 7.27821 4.03688 7.75584 4.89517C8.46925 4.614 9.059 4.25934 9.53384 3.86442C9.69866 3.72858 9.85381 3.58142 9.99817 3.424C9.15874 2.71801 8.09668 2.33161 6.99984 2.33317C6.72686 2.33298 6.45438 2.3566 6.1855 2.40375V2.40434ZM2.48075 5.83142C2.87814 5.82139 3.27505 5.79746 3.67075 5.75967C4.62721 5.67412 5.5755 5.5138 6.50692 5.28017C6.02014 4.43446 5.49458 3.61167 4.93192 2.81442C4.33092 3.11215 3.80099 3.53566 3.37806 4.05621C2.95514 4.57677 2.64912 5.18219 2.48075 5.83142ZM3.37325 9.93692C3.59959 9.60617 3.89709 9.234 4.292 8.82917C5.14017 7.96 6.14117 7.28334 7.29967 6.91L7.33584 6.8995C7.23959 6.68717 7.14917 6.49759 7.05817 6.31909C5.98717 6.63117 4.859 6.826 3.73492 6.92692C3.18659 6.9765 2.69484 6.99809 2.33317 7.00159C2.33214 8.0706 2.69968 9.10729 3.37384 9.93692H3.37325ZM8.75275 11.3253C8.5278 10.1908 8.20938 9.07694 7.80075 7.995C6.63292 8.41909 5.7025 9.03917 4.98325 9.77884C4.69299 10.0719 4.4354 10.3956 4.215 10.7443C5.01931 11.3444 5.99632 11.6679 6.99984 11.6665C7.60062 11.6674 8.19588 11.5519 8.75275 11.3264V11.3253ZM9.84534 10.6982C10.7561 9.99803 11.3765 8.9865 11.5878 7.85734C11.3894 7.80775 11.138 7.75817 10.8615 7.71967C10.2468 7.63115 9.62296 7.62467 9.0065 7.70042C9.35362 8.67974 9.63388 9.68148 9.84534 10.6988V10.6982ZM6.99984 12.8332C3.77809 12.8332 1.1665 10.2216 1.1665 6.99984C1.1665 3.77809 3.77809 1.1665 6.99984 1.1665C10.2216 1.1665 12.8332 3.77809 12.8332 6.99984C12.8332 10.2216 10.2216 12.8332 6.99984 12.8332Z" fill="#2B2B2B"/>
</g>
<defs>
<clipPath id="clip0_2_478">
<rect width="14" height="14" fill="white"/>
</clipPath>
</defs>
</svg>
