<svg width="14" height="14" viewBox="0 0 14 14" fill="none" xmlns="http://www.w3.org/2000/svg">
<g clip-path="url(#clip0_2_470)">
<path d="M4.04818 2.91676C4.04802 3.22618 3.92496 3.52287 3.70606 3.74155C3.48715 3.96023 3.19035 4.083 2.88093 4.08285C2.57151 4.08269 2.27482 3.95963 2.05614 3.74072C1.83746 3.52182 1.71469 3.22501 1.71484 2.9156C1.715 2.60618 1.83806 2.30949 2.05697 2.09081C2.27587 1.87213 2.57267 1.74936 2.88209 1.74951C3.19151 1.74967 3.4882 1.87273 3.70688 2.09163C3.92556 2.31053 4.04833 2.60734 4.04818 2.91676ZM4.08318 4.94676H1.74984V12.2501H4.08318V4.94676ZM7.76984 4.94676H5.44818V12.2501H7.74651V8.4176C7.74651 6.2826 10.529 6.08426 10.529 8.4176V12.2501H12.8332V7.62426C12.8332 4.0251 8.71484 4.15926 7.74651 5.92676L7.76984 4.94676Z" fill="#2B2B2B"/>
</g>
<defs>
<clipPath id="clip0_2_470">
<rect width="14" height="14" fill="white"/>
</clipPath>
</defs>
</svg>
